<svg xmlns="http://www.w3.org/2000/svg" width="1200" height="800" viewBox="0 0 1200 800" role="img" aria-label="Coach photo placeholder">
  <defs>
    <linearGradient id="bg" x1="0" y1="0" x2="1" y2="1">
      <stop offset="0" stop-color="#E9F7F1"/>
      <stop offset="1" stop-color="#F7FBFF"/>
    </linearGradient>
    <linearGradient id="accent" x1="0" y1="0" x2="1" y2="0">
      <stop offset="0" stop-color="#2FBF71"/>
      <stop offset="1" stop-color="#2F80ED"/>
    </linearGradient>
    <filter id="shadow" x="-20%" y="-20%" width="140%" height="140%">
      <feDropShadow dx="0" dy="16" stdDeviation="18" flood-color="#000" flood-opacity="0.14"/>
    </filter>
  </defs>

  <rect width="1200" height="800" fill="url(#bg)"/>
  <rect x="80" y="88" width="1040" height="624" rx="28" fill="#FFF" filter="url(#shadow)"/>
  <rect x="80" y="88" width="1040" height="10" rx="5" fill="url(#accent)"/>

  <circle cx="300" cy="360" r="128" fill="#F2F5F7" stroke="#E2E8F0" stroke-width="6"/>
  <path d="M300 320c28 0 50-22 50-50s-22-50-50-50-50 22-50 50 22 50 50 50zm0 26c-54 0-98 30-98 67 0 16 13 29 29 29h138c16 0 29-13 29-29 0-37-44-67-98-67z" fill="#9AA6B2"/>

  <rect x="500" y="310" width="520" height="56" rx="16" fill="#F8FAFC"/>
  <rect x="500" y="392" width="420" height="38" rx="12" fill="#F1F5F9"/>
  <rect x="500" y="448" width="460" height="26" rx="10" fill="#EEF2FF"/>
</svg>
